<svg width="294" height="69" viewBox="0 0 294 69" fill="none" xmlns="http://www.w3.org/2000/svg">
<rect width="293" height="68.4598" transform="translate(1)" fill="white"/>
<mask id="path-1-outside-1_209_1123" maskUnits="userSpaceOnUse" x="0" y="5" width="194" height="63" fill="black">
<rect fill="white" y="5" width="194" height="63"/>
<path d="M56.4924 59.3589C56.4924 62.0558 55.9124 63.9821 54.7523 65.2021C53.5921 66.3579 51.852 67 49.5317 67H12.6012C10.281 67 8.54079 66.3579 7.38066 65.2021C6.22054 63.9821 5.64048 62.0558 5.64048 59.3589V43.5632C5.64048 42.9211 5.76939 42.5358 6.02719 42.2789C6.285 42.0863 6.6717 41.9579 7.31621 41.9579H54.8167C55.3968 41.9579 55.8479 42.0863 56.1057 42.2789C56.3635 42.5358 56.4924 42.9211 56.4924 43.5632V59.3589ZM1.32226 7.60526C1.32226 6.96316 1.45116 6.57789 1.70896 6.32105C1.96677 6.12842 2.35347 6 2.99799 6H36.7059C37.286 6 37.7372 6.12842 37.995 6.32105C38.2528 6.57789 38.3817 6.96316 38.3817 7.60526V15.1179C38.3817 15.76 38.2528 16.2095 37.995 16.4021C37.7372 16.6589 37.286 16.7232 36.7059 16.7232H26.007C26.007 18.0074 26.136 19.1632 26.4582 20.3189C26.716 21.5389 27.2961 22.6305 28.1339 23.5937C28.9074 24.6211 30.003 25.52 31.4209 26.2905C32.7744 27.0611 34.5146 27.7032 36.7059 28.0884C36.8348 28.1526 37.0926 28.2168 37.3505 28.2168C37.5438 28.2811 37.7372 28.3453 37.995 28.4737C38.1883 28.6663 38.3817 28.8589 38.575 29.1158C38.7039 29.4368 38.7684 29.8221 38.7684 30.3358V37.4632C38.7684 38.2337 38.575 38.6832 38.1883 38.8116C37.7372 39.0042 37.3505 39.0684 37.0926 39.0042C35.5458 38.8758 34.0634 38.6832 32.5166 38.2979C30.9053 38.041 29.3585 37.5916 27.8761 36.9495C26.3293 36.4358 24.9114 35.6653 23.5579 34.7663C22.14 33.8674 20.9154 32.84 19.8842 31.5558C18.7241 32.84 17.4995 33.8674 16.2105 34.7663C14.7925 35.6653 13.3746 36.4358 11.8922 36.9495C10.3454 37.5916 8.86304 38.041 7.31621 38.2979C5.70494 38.6832 4.15811 38.8758 2.67573 39.0042C2.35347 39.0684 2.03122 39.0042 1.64451 38.8116C1.19335 38.6832 1 38.2337 1 37.4632V30.3358C1 29.8221 1.06445 29.4368 1.2578 29.1158C1.38671 28.8589 1.51561 28.6663 1.77341 28.4737C1.96677 28.3453 2.22457 28.2811 2.48238 28.2168C2.67573 28.2168 2.86908 28.1526 3.06244 28.0884C5.12487 27.7032 6.86506 27.0611 8.28298 26.2905C9.63646 25.52 10.7321 24.6211 11.57 23.5937C12.3434 22.6305 12.9235 21.5389 13.3102 20.3189C13.568 19.1632 13.7613 18.0074 13.7613 16.7232H2.99799C2.35347 16.7232 1.96677 16.6589 1.70896 16.4021C1.45116 16.2095 1.32226 15.76 1.32226 15.1179V7.60526ZM64.0977 25.0705C64.0977 25.7126 63.9688 26.1621 63.711 26.3547C63.4532 26.6116 63.002 26.6758 62.422 26.6758H56.4924V37.3989C56.4924 38.041 56.3635 38.4905 56.1057 38.6832C55.8479 38.94 55.3968 39.0042 54.8167 39.0042H45.7936C45.149 39.0042 44.7623 38.94 44.5045 38.6832C44.2467 38.4905 44.1178 38.041 44.1178 37.3989V7.60526C44.1178 6.96316 44.2467 6.57789 44.5045 6.32105C44.7623 6.12842 45.149 6 45.7936 6H54.8167C55.3968 6 55.8479 6.12842 56.1057 6.32105C56.3635 6.57789 56.4924 6.96316 56.4924 7.60526V16.0168H62.422C63.002 16.0168 63.4532 16.1453 63.711 16.3379C63.9688 16.5947 64.0977 16.98 64.0977 17.6221V25.0705ZM42.7644 56.9189C43.4733 56.9189 43.9889 56.7905 44.2467 56.5337C44.5045 56.2126 44.6334 55.6989 44.6334 54.8642V51.7179H17.3706V54.8642C17.3706 55.6989 17.4995 56.2126 17.7573 56.5337C18.0151 56.7905 18.4663 56.9189 19.2397 56.9189H42.7644Z"/>
<path d="M111.727 65.7158C111.083 65.7158 110.696 65.5874 110.438 65.3947C110.18 65.1379 110.051 64.7526 110.051 64.1105V7.60526C110.051 6.96316 110.18 6.57789 110.438 6.32105C110.696 6.12842 111.083 6 111.727 6H120.75C121.33 6 121.781 6.12842 122.039 6.32105C122.297 6.57789 122.426 6.96316 122.426 7.60526V64.1105C122.426 64.7526 122.297 65.1379 122.039 65.3947C121.781 65.5874 121.33 65.7158 120.75 65.7158H111.727ZM89.427 6C90.0071 6 90.4582 6.12842 90.716 6.32105C90.9738 6.57789 91.1027 6.96316 91.1027 7.60526V40.0316C91.1027 41.3158 91.2316 42.4716 91.5539 43.6274C91.8117 44.8474 92.3917 45.9389 93.2296 46.9021C94.003 47.9295 95.0987 48.8284 96.5166 49.5989C97.8701 50.4337 99.6103 51.0758 101.802 51.4611C101.931 51.5253 102.188 51.5895 102.446 51.5895C102.639 51.6537 102.833 51.7179 103.091 51.8463C103.284 52.0389 103.477 52.2316 103.671 52.4884C103.8 52.8095 103.864 53.1947 103.864 53.7084V60.8358C103.864 61.6063 103.671 62.0558 103.284 62.2484C102.833 62.3768 102.446 62.3768 102.188 62.3768C100.641 62.2484 99.1591 61.9916 97.6123 61.7347C96.001 61.3495 94.4542 60.9 92.9718 60.3863C91.425 59.7442 90.007 59.0379 88.6536 58.1389C87.2356 57.24 86.0111 56.1484 84.9799 54.9284C83.8197 56.1484 82.5952 57.24 81.3061 58.1389C79.8882 59.0379 78.4703 59.7442 76.9879 60.3863C75.4411 60.9 73.9587 61.3495 72.4119 61.7347C70.8006 61.9916 69.2538 62.2484 67.7714 62.3768C67.4491 62.3768 67.1269 62.3768 66.7402 62.2484C66.289 62.0558 66.0957 61.6063 66.0957 60.8358V53.7084C66.0957 53.1947 66.1601 52.8095 66.3535 52.4884C66.4824 52.2316 66.6113 52.0389 66.8691 51.8463C67.0624 51.7179 67.3202 51.6537 67.578 51.5895C67.7714 51.5895 67.9648 51.5253 68.1581 51.4611C70.285 51.0758 72.0252 50.4337 73.4431 49.5989C74.7966 48.8284 75.8922 47.9295 76.7301 46.9021C77.5035 45.9389 78.0836 44.8474 78.4058 43.6274C78.6636 42.4716 78.857 41.3158 78.857 40.0316V7.60526C78.857 6.96316 78.9859 6.57789 79.2437 6.32105C79.5015 6.12842 79.8882 6 80.5327 6H89.427Z"/>
<path d="M185.395 59.3589C185.395 62.0558 184.815 63.9821 183.655 65.2021C182.494 66.3579 180.754 67 178.434 67H141.504C139.183 67 137.443 66.3579 136.283 65.2021C135.123 63.9821 134.543 62.0558 134.543 59.3589V43.5632C134.543 42.9211 134.672 42.5358 134.93 42.2789C135.187 42.0863 135.574 41.9579 136.219 41.9579H183.719C184.299 41.9579 184.75 42.0863 185.008 42.2789C185.266 42.5358 185.395 42.9211 185.395 43.5632V59.3589ZM166.511 30.1432C166.511 32.84 165.931 34.8305 164.77 35.9863C163.61 37.2063 161.87 37.7842 159.55 37.7842H138.539C136.219 37.7842 134.478 37.2063 133.318 35.9863C132.158 34.8305 131.578 32.84 131.578 30.1432V7.60526C131.578 6.96316 131.707 6.57789 131.965 6.32105C132.223 6.12842 132.609 6 133.254 6H164.835C165.415 6 165.866 6.12842 166.124 6.32105C166.382 6.57789 166.511 6.96316 166.511 7.60526V30.1432ZM193 25.0705C193 25.7126 192.871 26.1621 192.613 26.3547C192.355 26.6116 191.904 26.6758 191.324 26.6758H185.395V37.3989C185.395 38.041 185.266 38.4905 185.008 38.6832C184.75 38.94 184.299 39.0042 183.719 39.0042H174.696C174.051 39.0042 173.665 38.94 173.407 38.6832C173.149 38.4905 173.02 38.041 173.02 37.3989V7.60526C173.02 6.96316 173.149 6.57789 173.407 6.32105C173.665 6.12842 174.051 6 174.696 6H183.719C184.299 6 184.75 6.12842 185.008 6.32105C185.266 6.57789 185.395 6.96316 185.395 7.60526V16.0168H191.324C191.904 16.0168 192.355 16.1453 192.613 16.3379C192.871 16.5947 193 16.98 193 17.6221V25.0705ZM171.667 56.9189C172.376 56.9189 172.891 56.7905 173.149 56.5337C173.407 56.2126 173.536 55.6989 173.536 54.8642V51.7179H146.273V54.8642C146.273 55.6989 146.402 56.2126 146.66 56.5337C146.917 56.7905 147.369 56.9189 148.142 56.9189H171.667ZM152.847 27.7032C153.556 27.7032 154.071 27.5747 154.329 27.2537C154.587 26.9968 154.716 26.4832 154.716 25.6484V15.76H143.373V25.6484C143.373 26.4832 143.501 26.9968 143.759 27.2537C144.017 27.5747 144.468 27.7032 145.242 27.7032H152.847Z"/>
</mask>
<path d="M56.4924 59.3589C56.4924 62.0558 55.9124 63.9821 54.7523 65.2021C53.5921 66.3579 51.852 67 49.5317 67H12.6012C10.281 67 8.54079 66.3579 7.38066 65.2021C6.22054 63.9821 5.64048 62.0558 5.64048 59.3589V43.5632C5.64048 42.9211 5.76939 42.5358 6.02719 42.2789C6.285 42.0863 6.6717 41.9579 7.31621 41.9579H54.8167C55.3968 41.9579 55.8479 42.0863 56.1057 42.2789C56.3635 42.5358 56.4924 42.9211 56.4924 43.5632V59.3589ZM1.32226 7.60526C1.32226 6.96316 1.45116 6.57789 1.70896 6.32105C1.96677 6.12842 2.35347 6 2.99799 6H36.7059C37.286 6 37.7372 6.12842 37.995 6.32105C38.2528 6.57789 38.3817 6.96316 38.3817 7.60526V15.1179C38.3817 15.76 38.2528 16.2095 37.995 16.4021C37.7372 16.6589 37.286 16.7232 36.7059 16.7232H26.007C26.007 18.0074 26.136 19.1632 26.4582 20.3189C26.716 21.5389 27.2961 22.6305 28.1339 23.5937C28.9074 24.6211 30.003 25.52 31.4209 26.2905C32.7744 27.0611 34.5146 27.7032 36.7059 28.0884C36.8348 28.1526 37.0926 28.2168 37.3505 28.2168C37.5438 28.2811 37.7372 28.3453 37.995 28.4737C38.1883 28.6663 38.3817 28.8589 38.575 29.1158C38.7039 29.4368 38.7684 29.8221 38.7684 30.3358V37.4632C38.7684 38.2337 38.575 38.6832 38.1883 38.8116C37.7372 39.0042 37.3505 39.0684 37.0926 39.0042C35.5458 38.8758 34.0634 38.6832 32.5166 38.2979C30.9053 38.041 29.3585 37.5916 27.8761 36.9495C26.3293 36.4358 24.9114 35.6653 23.5579 34.7663C22.14 33.8674 20.9154 32.84 19.8842 31.5558C18.7241 32.84 17.4995 33.8674 16.2105 34.7663C14.7925 35.6653 13.3746 36.4358 11.8922 36.9495C10.3454 37.5916 8.86304 38.041 7.31621 38.2979C5.70494 38.6832 4.15811 38.8758 2.67573 39.0042C2.35347 39.0684 2.03122 39.0042 1.64451 38.8116C1.19335 38.6832 1 38.2337 1 37.4632V30.3358C1 29.8221 1.06445 29.4368 1.2578 29.1158C1.38671 28.8589 1.51561 28.6663 1.77341 28.4737C1.96677 28.3453 2.22457 28.2811 2.48238 28.2168C2.67573 28.2168 2.86908 28.1526 3.06244 28.0884C5.12487 27.7032 6.86506 27.0611 8.28298 26.2905C9.63646 25.52 10.7321 24.6211 11.57 23.5937C12.3434 22.6305 12.9235 21.5389 13.3102 20.3189C13.568 19.1632 13.7613 18.0074 13.7613 16.7232H2.99799C2.35347 16.7232 1.96677 16.6589 1.70896 16.4021C1.45116 16.2095 1.32226 15.76 1.32226 15.1179V7.60526ZM64.0977 25.0705C64.0977 25.7126 63.9688 26.1621 63.711 26.3547C63.4532 26.6116 63.002 26.6758 62.422 26.6758H56.4924V37.3989C56.4924 38.041 56.3635 38.4905 56.1057 38.6832C55.8479 38.94 55.3968 39.0042 54.8167 39.0042H45.7936C45.149 39.0042 44.7623 38.94 44.5045 38.6832C44.2467 38.4905 44.1178 38.041 44.1178 37.3989V7.60526C44.1178 6.96316 44.2467 6.57789 44.5045 6.32105C44.7623 6.12842 45.149 6 45.7936 6H54.8167C55.3968 6 55.8479 6.12842 56.1057 6.32105C56.3635 6.57789 56.4924 6.96316 56.4924 7.60526V16.0168H62.422C63.002 16.0168 63.4532 16.1453 63.711 16.3379C63.9688 16.5947 64.0977 16.98 64.0977 17.6221V25.0705ZM42.7644 56.9189C43.4733 56.9189 43.9889 56.7905 44.2467 56.5337C44.5045 56.2126 44.6334 55.6989 44.6334 54.8642V51.7179H17.3706V54.8642C17.3706 55.6989 17.4995 56.2126 17.7573 56.5337C18.0151 56.7905 18.4663 56.9189 19.2397 56.9189H42.7644Z" fill="black"/>
<path d="M111.727 65.7158C111.083 65.7158 110.696 65.5874 110.438 65.3947C110.18 65.1379 110.051 64.7526 110.051 64.1105V7.60526C110.051 6.96316 110.18 6.57789 110.438 6.32105C110.696 6.12842 111.083 6 111.727 6H120.75C121.33 6 121.781 6.12842 122.039 6.32105C122.297 6.57789 122.426 6.96316 122.426 7.60526V64.1105C122.426 64.7526 122.297 65.1379 122.039 65.3947C121.781 65.5874 121.33 65.7158 120.75 65.7158H111.727ZM89.427 6C90.0071 6 90.4582 6.12842 90.716 6.32105C90.9738 6.57789 91.1027 6.96316 91.1027 7.60526V40.0316C91.1027 41.3158 91.2316 42.4716 91.5539 43.6274C91.8117 44.8474 92.3917 45.9389 93.2296 46.9021C94.003 47.9295 95.0987 48.8284 96.5166 49.5989C97.8701 50.4337 99.6103 51.0758 101.802 51.4611C101.931 51.5253 102.188 51.5895 102.446 51.5895C102.639 51.6537 102.833 51.7179 103.091 51.8463C103.284 52.0389 103.477 52.2316 103.671 52.4884C103.8 52.8095 103.864 53.1947 103.864 53.7084V60.8358C103.864 61.6063 103.671 62.0558 103.284 62.2484C102.833 62.3768 102.446 62.3768 102.188 62.3768C100.641 62.2484 99.1591 61.9916 97.6123 61.7347C96.001 61.3495 94.4542 60.9 92.9718 60.3863C91.425 59.7442 90.007 59.0379 88.6536 58.1389C87.2356 57.24 86.0111 56.1484 84.9799 54.9284C83.8197 56.1484 82.5952 57.24 81.3061 58.1389C79.8882 59.0379 78.4703 59.7442 76.9879 60.3863C75.4411 60.9 73.9587 61.3495 72.4119 61.7347C70.8006 61.9916 69.2538 62.2484 67.7714 62.3768C67.4491 62.3768 67.1269 62.3768 66.7402 62.2484C66.289 62.0558 66.0957 61.6063 66.0957 60.8358V53.7084C66.0957 53.1947 66.1601 52.8095 66.3535 52.4884C66.4824 52.2316 66.6113 52.0389 66.8691 51.8463C67.0624 51.7179 67.3202 51.6537 67.578 51.5895C67.7714 51.5895 67.9648 51.5253 68.1581 51.4611C70.285 51.0758 72.0252 50.4337 73.4431 49.5989C74.7966 48.8284 75.8922 47.9295 76.7301 46.9021C77.5035 45.9389 78.0836 44.8474 78.4058 43.6274C78.6636 42.4716 78.857 41.3158 78.857 40.0316V7.60526C78.857 6.96316 78.9859 6.57789 79.2437 6.32105C79.5015 6.12842 79.8882 6 80.5327 6H89.427Z" fill="black"/>
<path d="M185.395 59.3589C185.395 62.0558 184.815 63.9821 183.655 65.2021C182.494 66.3579 180.754 67 178.434 67H141.504C139.183 67 137.443 66.3579 136.283 65.2021C135.123 63.9821 134.543 62.0558 134.543 59.3589V43.5632C134.543 42.9211 134.672 42.5358 134.93 42.2789C135.187 42.0863 135.574 41.9579 136.219 41.9579H183.719C184.299 41.9579 184.75 42.0863 185.008 42.2789C185.266 42.5358 185.395 42.9211 185.395 43.5632V59.3589ZM166.511 30.1432C166.511 32.84 165.931 34.8305 164.77 35.9863C163.61 37.2063 161.87 37.7842 159.55 37.7842H138.539C136.219 37.7842 134.478 37.2063 133.318 35.9863C132.158 34.8305 131.578 32.84 131.578 30.1432V7.60526C131.578 6.96316 131.707 6.57789 131.965 6.32105C132.223 6.12842 132.609 6 133.254 6H164.835C165.415 6 165.866 6.12842 166.124 6.32105C166.382 6.57789 166.511 6.96316 166.511 7.60526V30.1432ZM193 25.0705C193 25.7126 192.871 26.1621 192.613 26.3547C192.355 26.6116 191.904 26.6758 191.324 26.6758H185.395V37.3989C185.395 38.041 185.266 38.4905 185.008 38.6832C184.75 38.94 184.299 39.0042 183.719 39.0042H174.696C174.051 39.0042 173.665 38.94 173.407 38.6832C173.149 38.4905 173.02 38.041 173.02 37.3989V7.60526C173.02 6.96316 173.149 6.57789 173.407 6.32105C173.665 6.12842 174.051 6 174.696 6H183.719C184.299 6 184.75 6.12842 185.008 6.32105C185.266 6.57789 185.395 6.96316 185.395 7.60526V16.0168H191.324C191.904 16.0168 192.355 16.1453 192.613 16.3379C192.871 16.5947 193 16.98 193 17.6221V25.0705ZM171.667 56.9189C172.376 56.9189 172.891 56.7905 173.149 56.5337C173.407 56.2126 173.536 55.6989 173.536 54.8642V51.7179H146.273V54.8642C146.273 55.6989 146.402 56.2126 146.66 56.5337C146.917 56.7905 147.369 56.9189 148.142 56.9189H171.667ZM152.847 27.7032C153.556 27.7032 154.071 27.5747 154.329 27.2537C154.587 26.9968 154.716 26.4832 154.716 25.6484V15.76H143.373V25.6484C143.373 26.4832 143.501 26.9968 143.759 27.2537C144.017 27.5747 144.468 27.7032 145.242 27.7032H152.847Z" fill="black"/>
<path d="M56.4924 59.3589C56.4924 62.0558 55.9124 63.9821 54.7523 65.2021C53.5921 66.3579 51.852 67 49.5317 67H12.6012C10.281 67 8.54079 66.3579 7.38066 65.2021C6.22054 63.9821 5.64048 62.0558 5.64048 59.3589V43.5632C5.64048 42.9211 5.76939 42.5358 6.02719 42.2789C6.285 42.0863 6.6717 41.9579 7.31621 41.9579H54.8167C55.3968 41.9579 55.8479 42.0863 56.1057 42.2789C56.3635 42.5358 56.4924 42.9211 56.4924 43.5632V59.3589ZM1.32226 7.60526C1.32226 6.96316 1.45116 6.57789 1.70896 6.32105C1.96677 6.12842 2.35347 6 2.99799 6H36.7059C37.286 6 37.7372 6.12842 37.995 6.32105C38.2528 6.57789 38.3817 6.96316 38.3817 7.60526V15.1179C38.3817 15.76 38.2528 16.2095 37.995 16.4021C37.7372 16.6589 37.286 16.7232 36.7059 16.7232H26.007C26.007 18.0074 26.136 19.1632 26.4582 20.3189C26.716 21.5389 27.2961 22.6305 28.1339 23.5937C28.9074 24.6211 30.003 25.52 31.4209 26.2905C32.7744 27.0611 34.5146 27.7032 36.7059 28.0884C36.8348 28.1526 37.0926 28.2168 37.3505 28.2168C37.5438 28.2811 37.7372 28.3453 37.995 28.4737C38.1883 28.6663 38.3817 28.8589 38.575 29.1158C38.7039 29.4368 38.7684 29.8221 38.7684 30.3358V37.4632C38.7684 38.2337 38.575 38.6832 38.1883 38.8116C37.7372 39.0042 37.3505 39.0684 37.0926 39.0042C35.5458 38.8758 34.0634 38.6832 32.5166 38.2979C30.9053 38.041 29.3585 37.5916 27.8761 36.9495C26.3293 36.4358 24.9114 35.6653 23.5579 34.7663C22.14 33.8674 20.9154 32.84 19.8842 31.5558C18.7241 32.84 17.4995 33.8674 16.2105 34.7663C14.7925 35.6653 13.3746 36.4358 11.8922 36.9495C10.3454 37.5916 8.86304 38.041 7.31621 38.2979C5.70494 38.6832 4.15811 38.8758 2.67573 39.0042C2.35347 39.0684 2.03122 39.0042 1.64451 38.8116C1.19335 38.6832 1 38.2337 1 37.4632V30.3358C1 29.8221 1.06445 29.4368 1.2578 29.1158C1.38671 28.8589 1.51561 28.6663 1.77341 28.4737C1.96677 28.3453 2.22457 28.2811 2.48238 28.2168C2.67573 28.2168 2.86908 28.1526 3.06244 28.0884C5.12487 27.7032 6.86506 27.0611 8.28298 26.2905C9.63646 25.52 10.7321 24.6211 11.57 23.5937C12.3434 22.6305 12.9235 21.5389 13.3102 20.3189C13.568 19.1632 13.7613 18.0074 13.7613 16.7232H2.99799C2.35347 16.7232 1.96677 16.6589 1.70896 16.4021C1.45116 16.2095 1.32226 15.76 1.32226 15.1179V7.60526ZM64.0977 25.0705C64.0977 25.7126 63.9688 26.1621 63.711 26.3547C63.4532 26.6116 63.002 26.6758 62.422 26.6758H56.4924V37.3989C56.4924 38.041 56.3635 38.4905 56.1057 38.6832C55.8479 38.94 55.3968 39.0042 54.8167 39.0042H45.7936C45.149 39.0042 44.7623 38.94 44.5045 38.6832C44.2467 38.4905 44.1178 38.041 44.1178 37.3989V7.60526C44.1178 6.96316 44.2467 6.57789 44.5045 6.32105C44.7623 6.12842 45.149 6 45.7936 6H54.8167C55.3968 6 55.8479 6.12842 56.1057 6.32105C56.3635 6.57789 56.4924 6.96316 56.4924 7.60526V16.0168H62.422C63.002 16.0168 63.4532 16.1453 63.711 16.3379C63.9688 16.5947 64.0977 16.98 64.0977 17.6221V25.0705ZM42.7644 56.9189C43.4733 56.9189 43.9889 56.7905 44.2467 56.5337C44.5045 56.2126 44.6334 55.6989 44.6334 54.8642V51.7179H17.3706V54.8642C17.3706 55.6989 17.4995 56.2126 17.7573 56.5337C18.0151 56.7905 18.4663 56.9189 19.2397 56.9189H42.7644Z" stroke="black" stroke-width="0.4" mask="url(#path-1-outside-1_209_1123)"/>
<path d="M111.727 65.7158C111.083 65.7158 110.696 65.5874 110.438 65.3947C110.18 65.1379 110.051 64.7526 110.051 64.1105V7.60526C110.051 6.96316 110.18 6.57789 110.438 6.32105C110.696 6.12842 111.083 6 111.727 6H120.75C121.33 6 121.781 6.12842 122.039 6.32105C122.297 6.57789 122.426 6.96316 122.426 7.60526V64.1105C122.426 64.7526 122.297 65.1379 122.039 65.3947C121.781 65.5874 121.33 65.7158 120.75 65.7158H111.727ZM89.427 6C90.0071 6 90.4582 6.12842 90.716 6.32105C90.9738 6.57789 91.1027 6.96316 91.1027 7.60526V40.0316C91.1027 41.3158 91.2316 42.4716 91.5539 43.6274C91.8117 44.8474 92.3917 45.9389 93.2296 46.9021C94.003 47.9295 95.0987 48.8284 96.5166 49.5989C97.8701 50.4337 99.6103 51.0758 101.802 51.4611C101.931 51.5253 102.188 51.5895 102.446 51.5895C102.639 51.6537 102.833 51.7179 103.091 51.8463C103.284 52.0389 103.477 52.2316 103.671 52.4884C103.8 52.8095 103.864 53.1947 103.864 53.7084V60.8358C103.864 61.6063 103.671 62.0558 103.284 62.2484C102.833 62.3768 102.446 62.3768 102.188 62.3768C100.641 62.2484 99.1591 61.9916 97.6123 61.7347C96.001 61.3495 94.4542 60.9 92.9718 60.3863C91.425 59.7442 90.007 59.0379 88.6536 58.1389C87.2356 57.24 86.0111 56.1484 84.9799 54.9284C83.8197 56.1484 82.5952 57.24 81.3061 58.1389C79.8882 59.0379 78.4703 59.7442 76.9879 60.3863C75.4411 60.9 73.9587 61.3495 72.4119 61.7347C70.8006 61.9916 69.2538 62.2484 67.7714 62.3768C67.4491 62.3768 67.1269 62.3768 66.7402 62.2484C66.289 62.0558 66.0957 61.6063 66.0957 60.8358V53.7084C66.0957 53.1947 66.1601 52.8095 66.3535 52.4884C66.4824 52.2316 66.6113 52.0389 66.8691 51.8463C67.0624 51.7179 67.3202 51.6537 67.578 51.5895C67.7714 51.5895 67.9648 51.5253 68.1581 51.4611C70.285 51.0758 72.0252 50.4337 73.4431 49.5989C74.7966 48.8284 75.8922 47.9295 76.7301 46.9021C77.5035 45.9389 78.0836 44.8474 78.4058 43.6274C78.6636 42.4716 78.857 41.3158 78.857 40.0316V7.60526C78.857 6.96316 78.9859 6.57789 79.2437 6.32105C79.5015 6.12842 79.8882 6 80.5327 6H89.427Z" stroke="black" stroke-width="0.4" mask="url(#path-1-outside-1_209_1123)"/>
<path d="M185.395 59.3589C185.395 62.0558 184.815 63.9821 183.655 65.2021C182.494 66.3579 180.754 67 178.434 67H141.504C139.183 67 137.443 66.3579 136.283 65.2021C135.123 63.9821 134.543 62.0558 134.543 59.3589V43.5632C134.543 42.9211 134.672 42.5358 134.93 42.2789C135.187 42.0863 135.574 41.9579 136.219 41.9579H183.719C184.299 41.9579 184.75 42.0863 185.008 42.2789C185.266 42.5358 185.395 42.9211 185.395 43.5632V59.3589ZM166.511 30.1432C166.511 32.84 165.931 34.8305 164.77 35.9863C163.61 37.2063 161.87 37.7842 159.55 37.7842H138.539C136.219 37.7842 134.478 37.2063 133.318 35.9863C132.158 34.8305 131.578 32.84 131.578 30.1432V7.60526C131.578 6.96316 131.707 6.57789 131.965 6.32105C132.223 6.12842 132.609 6 133.254 6H164.835C165.415 6 165.866 6.12842 166.124 6.32105C166.382 6.57789 166.511 6.96316 166.511 7.60526V30.1432ZM193 25.0705C193 25.7126 192.871 26.1621 192.613 26.3547C192.355 26.6116 191.904 26.6758 191.324 26.6758H185.395V37.3989C185.395 38.041 185.266 38.4905 185.008 38.6832C184.75 38.94 184.299 39.0042 183.719 39.0042H174.696C174.051 39.0042 173.665 38.94 173.407 38.6832C173.149 38.4905 173.02 38.041 173.02 37.3989V7.60526C173.02 6.96316 173.149 6.57789 173.407 6.32105C173.665 6.12842 174.051 6 174.696 6H183.719C184.299 6 184.75 6.12842 185.008 6.32105C185.266 6.57789 185.395 6.96316 185.395 7.60526V16.0168H191.324C191.904 16.0168 192.355 16.1453 192.613 16.3379C192.871 16.5947 193 16.98 193 17.6221V25.0705ZM171.667 56.9189C172.376 56.9189 172.891 56.7905 173.149 56.5337C173.407 56.2126 173.536 55.6989 173.536 54.8642V51.7179H146.273V54.8642C146.273 55.6989 146.402 56.2126 146.66 56.5337C146.917 56.7905 147.369 56.9189 148.142 56.9189H171.667ZM152.847 27.7032C153.556 27.7032 154.071 27.5747 154.329 27.2537C154.587 26.9968 154.716 26.4832 154.716 25.6484V15.76H143.373V25.6484C143.373 26.4832 143.501 26.9968 143.759 27.2537C144.017 27.5747 144.468 27.7032 145.242 27.7032H152.847Z" stroke="black" stroke-width="0.4" mask="url(#path-1-outside-1_209_1123)"/>
<mask id="path-2-inside-2_209_1123" fill="white">
<path fill-rule="evenodd" clip-rule="evenodd" d="M237.602 6.60144C236.835 6.91587 235.959 6.54945 235.645 5.78302C235.33 5.01658 235.697 4.14036 236.463 3.82593C238.104 3.15262 239.929 2.88604 241.716 3.05171C243.501 3.21732 245.206 3.8113 246.605 4.79398C248.006 5.77839 249.056 7.12352 249.555 8.68935C250.055 10.2621 249.958 11.9284 249.299 13.4565C249.225 13.6266 249.145 13.7939 249.059 13.9581C259.236 17.4359 266.772 26.6105 267.864 37.6781C271.383 38.5178 274 41.6832 274 45.4599C274 49.8782 270.418 53.4599 266 53.4599C265.609 53.4599 265.225 53.4318 264.849 53.3776C260.18 62.3401 250.805 68.46 240 68.46C229.009 68.46 219.498 62.1277 214.914 52.9124C214.011 53.2659 213.028 53.4599 212 53.4599C207.582 53.4599 204 49.8782 204 45.4599C204 41.0416 207.582 37.4599 212 37.4599C212.053 37.4599 212.106 37.4604 212.159 37.4614C213.655 23.4075 225.549 12.46 240 12.46C242.081 12.46 244.11 12.6871 246.061 13.1179C246.258 12.8431 246.419 12.558 246.544 12.2676C246.926 11.3834 246.971 10.4623 246.696 9.59982C246.419 8.73043 245.81 7.90185 244.881 7.24893C243.949 6.59427 242.754 6.16085 241.439 6.03889C240.124 5.91701 238.786 6.11562 237.602 6.60144Z"/>
</mask>
<path d="M235.645 5.78302L232.869 6.92168L232.869 6.92168L235.645 5.78302ZM237.602 6.60144L236.463 3.82593L236.463 3.82593L237.602 6.60144ZM236.463 3.82593L235.324 1.05042V1.05042L236.463 3.82593ZM241.716 3.05171L241.439 6.03889L241.716 3.05171ZM246.605 4.79398L248.329 2.33903L248.329 2.33903L246.605 4.79398ZM249.555 8.68935L252.413 7.77888V7.77887L249.555 8.68935ZM249.299 13.4565L252.053 14.6454L252.053 14.6454L249.299 13.4565ZM249.059 13.9581L246.402 12.5657L244.778 15.6653L248.089 16.7969L249.059 13.9581ZM267.864 37.6781L264.878 37.9725L265.088 40.1L267.167 40.5962L267.864 37.6781ZM264.849 53.3776L265.277 50.4083L263.171 50.1048L262.188 51.9917L264.849 53.3776ZM214.914 52.9124L217.601 51.5765L216.378 49.1181L213.821 50.1187L214.914 52.9124ZM212.159 37.4614L212.1 40.4608L214.851 40.5143L215.142 37.779L212.159 37.4614ZM246.061 13.1179L245.415 16.0474L247.351 16.4746L248.503 14.8613L246.061 13.1179ZM246.544 12.2676L243.79 11.0786L243.79 11.0787L246.544 12.2676ZM246.696 9.59982L249.555 8.68935L249.555 8.68934L246.696 9.59982ZM244.881 7.24893L246.605 4.79398L246.605 4.79398L244.881 7.24893ZM241.439 6.03889L241.162 9.02608L241.439 6.03889ZM232.869 6.92168C233.812 9.22098 236.441 10.3203 238.74 9.37695L236.463 3.82593C237.23 3.5115 238.106 3.87792 238.42 4.64436L232.869 6.92168ZM235.324 1.05042C233.025 1.99372 231.926 4.62237 232.869 6.92168L238.42 4.64436C238.735 5.4108 238.368 6.28701 237.602 6.60144L235.324 1.05042ZM241.993 0.0645292C239.734 -0.144931 237.423 0.18962 235.324 1.05042L237.602 6.60144C238.786 6.11563 240.124 5.917 241.439 6.03889L241.993 0.0645292ZM248.329 2.33903C246.463 1.02823 244.249 0.273767 241.993 0.0645289L241.439 6.03889C242.754 6.16087 243.949 6.59437 244.881 7.24893L248.329 2.33903ZM252.413 7.77887C251.692 5.51608 250.202 3.65456 248.329 2.33903L244.881 7.24893C245.811 7.90221 246.419 8.73097 246.696 9.59982L252.413 7.77887ZM252.053 14.6454C252.991 12.4736 253.14 10.0622 252.413 7.77888L246.696 9.59982C246.971 10.462 246.926 11.3831 246.544 12.2676L252.053 14.6454ZM251.717 15.3505C251.837 15.1206 251.95 14.8854 252.053 14.6454L246.544 12.2675C246.501 12.3679 246.454 12.4673 246.402 12.5657L251.717 15.3505ZM248.089 16.7969C257.178 19.9028 263.904 28.0995 264.878 37.9725L270.849 37.3836C269.64 25.1214 261.294 14.969 250.03 11.1193L248.089 16.7969ZM267.167 40.5962C269.367 41.121 271 43.1034 271 45.4599H277C277 40.263 273.399 35.9146 268.56 34.76L267.167 40.5962ZM271 45.4599C271 48.2213 268.761 50.4599 266 50.4599V56.4599C272.075 56.4599 277 51.535 277 45.4599H271ZM266 50.4599C265.753 50.4599 265.511 50.4421 265.277 50.4083L264.421 56.347C264.938 56.4215 265.465 56.4599 266 56.4599V50.4599ZM262.188 51.9917C258.016 60.0014 249.643 65.46 240 65.46V71.46C251.967 71.46 262.344 64.6789 267.509 54.7636L262.188 51.9917ZM240 65.46C230.191 65.46 221.696 59.8117 217.601 51.5765L212.228 54.2484C217.299 64.4437 227.827 71.46 240 71.46V65.46ZM213.821 50.1187C213.261 50.338 212.648 50.4599 212 50.4599V56.4599C213.408 56.4599 214.762 56.1937 216.008 55.7061L213.821 50.1187ZM212 50.4599C209.239 50.4599 207 48.2213 207 45.4599H201C201 51.535 205.925 56.4599 212 56.4599V50.4599ZM207 45.4599C207 42.6984 209.239 40.4599 212 40.4599V34.4599C205.925 34.4599 201 39.3847 201 45.4599H207ZM212 40.4599C212.033 40.4599 212.067 40.4602 212.1 40.4608L212.217 34.462C212.145 34.4606 212.073 34.4599 212 34.4599V40.4599ZM215.142 37.779C216.477 25.234 227.099 15.46 240 15.46V9.46004C223.999 9.46004 210.832 21.5809 209.176 37.1438L215.142 37.779ZM240 15.46C241.862 15.46 243.674 15.6632 245.415 16.0474L246.708 10.1884C244.545 9.71107 242.3 9.46004 240 9.46004V15.46ZM243.79 11.0787C243.753 11.1648 243.698 11.2648 243.62 11.3745L248.503 14.8613C248.817 14.4214 249.085 13.9512 249.299 13.4565L243.79 11.0787ZM243.838 10.5103C243.886 10.6628 243.894 10.8388 243.79 11.0786L249.299 13.4565C249.959 11.928 250.055 10.2617 249.555 8.68935L243.838 10.5103ZM243.156 9.70387C243.613 10.0247 243.782 10.3364 243.838 10.5103L249.555 8.68934C249.056 7.12441 248.007 5.77899 246.605 4.79398L243.156 9.70387ZM241.162 9.02608C242.006 9.10436 242.691 9.37711 243.156 9.70387L246.605 4.79398C245.206 3.81144 243.502 3.21734 241.716 3.05171L241.162 9.02608ZM238.74 9.37695C239.468 9.0786 240.319 8.94798 241.162 9.02608L241.716 3.05171C239.929 2.88603 238.104 3.15264 236.463 3.82593L238.74 9.37695Z" fill="#454545" mask="url(#path-2-inside-2_209_1123)"/>
<circle cx="231" cy="40.46" r="4" fill="#454545"/>
<circle cx="255" cy="40.46" r="4" fill="#454545"/>
<path d="M243 58.46C247.08 58.46 250.447 55.4052 250.938 51.458C251.007 50.9099 250.552 50.46 250 50.46H236C235.448 50.46 234.993 50.9099 235.062 51.458C235.553 55.4052 238.92 58.46 243 58.46Z" fill="#454545"/>
<path d="M233 26C233 26 233.292 30 237.7 30C242.108 30 243.913 27.3333 244.021 26C244.021 25.3333 243.697 24 242.4 24C241.773 24 240.922 24.8984 240.992 26C241.102 27.7451 242.927 30 247.1 30C252.546 30 251.8 26 251.8 26" stroke="#454545" stroke-width="2" stroke-linecap="round"/>
<g clip-path="url(#clip0_209_1123)">
<path d="M280 33.6663C286.443 33.6663 291.666 28.443 291.666 21.9997C291.666 15.5564 286.443 10.333 280 10.333C273.556 10.333 268.333 15.5564 268.333 21.9997C268.333 28.443 273.556 33.6663 280 33.6663Z" stroke="#454545" stroke-width="3" stroke-linecap="round" stroke-linejoin="round"/>
<path d="M283.5 26.6667L280.684 23.8503C280.246 23.4129 280 22.8195 280 22.2007V15" stroke="#454545" stroke-width="2.33333" stroke-linecap="round" stroke-linejoin="round"/>
</g>
<mask id="path-10-outside-3_209_1123" maskUnits="userSpaceOnUse" x="0" y="5" width="194" height="63" fill="black">
<rect fill="white" y="5" width="194" height="63"/>
<path d="M56.4924 59.3589C56.4924 62.0558 55.9124 63.9821 54.7523 65.2021C53.5921 66.3579 51.852 67 49.5317 67H12.6012C10.281 67 8.54079 66.3579 7.38066 65.2021C6.22054 63.9821 5.64048 62.0558 5.64048 59.3589V43.5632C5.64048 42.9211 5.76939 42.5358 6.02719 42.2789C6.285 42.0863 6.6717 41.9579 7.31621 41.9579H54.8167C55.3968 41.9579 55.8479 42.0863 56.1057 42.2789C56.3635 42.5358 56.4924 42.9211 56.4924 43.5632V59.3589ZM1.32226 7.60526C1.32226 6.96316 1.45116 6.57789 1.70896 6.32105C1.96677 6.12842 2.35347 6 2.99799 6H36.7059C37.286 6 37.7372 6.12842 37.995 6.32105C38.2528 6.57789 38.3817 6.96316 38.3817 7.60526V15.1179C38.3817 15.76 38.2528 16.2095 37.995 16.4021C37.7372 16.6589 37.286 16.7232 36.7059 16.7232H26.007C26.007 18.0074 26.136 19.1632 26.4582 20.3189C26.716 21.5389 27.2961 22.6305 28.1339 23.5937C28.9074 24.6211 30.003 25.52 31.4209 26.2905C32.7744 27.0611 34.5146 27.7032 36.7059 28.0884C36.8348 28.1526 37.0926 28.2168 37.3505 28.2168C37.5438 28.2811 37.7372 28.3453 37.995 28.4737C38.1883 28.6663 38.3817 28.8589 38.575 29.1158C38.7039 29.4368 38.7684 29.8221 38.7684 30.3358V37.4632C38.7684 38.2337 38.575 38.6832 38.1883 38.8116C37.7372 39.0042 37.3505 39.0684 37.0926 39.0042C35.5458 38.8758 34.0634 38.6832 32.5166 38.2979C30.9053 38.041 29.3585 37.5916 27.8761 36.9495C26.3293 36.4358 24.9114 35.6653 23.5579 34.7663C22.14 33.8674 20.9154 32.84 19.8842 31.5558C18.7241 32.84 17.4995 33.8674 16.2105 34.7663C14.7925 35.6653 13.3746 36.4358 11.8922 36.9495C10.3454 37.5916 8.86304 38.041 7.31621 38.2979C5.70494 38.6832 4.15811 38.8758 2.67573 39.0042C2.35347 39.0684 2.03122 39.0042 1.64451 38.8116C1.19335 38.6832 1 38.2337 1 37.4632V30.3358C1 29.8221 1.06445 29.4368 1.2578 29.1158C1.38671 28.8589 1.51561 28.6663 1.77341 28.4737C1.96677 28.3453 2.22457 28.2811 2.48238 28.2168C2.67573 28.2168 2.86908 28.1526 3.06244 28.0884C5.12487 27.7032 6.86506 27.0611 8.28298 26.2905C9.63646 25.52 10.7321 24.6211 11.57 23.5937C12.3434 22.6305 12.9235 21.5389 13.3102 20.3189C13.568 19.1632 13.7613 18.0074 13.7613 16.7232H2.99799C2.35347 16.7232 1.96677 16.6589 1.70896 16.4021C1.45116 16.2095 1.32226 15.76 1.32226 15.1179V7.60526ZM64.0977 25.0705C64.0977 25.7126 63.9688 26.1621 63.711 26.3547C63.4532 26.6116 63.002 26.6758 62.422 26.6758H56.4924V37.3989C56.4924 38.041 56.3635 38.4905 56.1057 38.6832C55.8479 38.94 55.3968 39.0042 54.8167 39.0042H45.7936C45.149 39.0042 44.7623 38.94 44.5045 38.6832C44.2467 38.4905 44.1178 38.041 44.1178 37.3989V7.60526C44.1178 6.96316 44.2467 6.57789 44.5045 6.32105C44.7623 6.12842 45.149 6 45.7936 6H54.8167C55.3968 6 55.8479 6.12842 56.1057 6.32105C56.3635 6.57789 56.4924 6.96316 56.4924 7.60526V16.0168H62.422C63.002 16.0168 63.4532 16.1453 63.711 16.3379C63.9688 16.5947 64.0977 16.98 64.0977 17.6221V25.0705ZM42.7644 56.9189C43.4733 56.9189 43.9889 56.7905 44.2467 56.5337C44.5045 56.2126 44.6334 55.6989 44.6334 54.8642V51.7179H17.3706V54.8642C17.3706 55.6989 17.4995 56.2126 17.7573 56.5337C18.0151 56.7905 18.4663 56.9189 19.2397 56.9189H42.7644Z"/>
<path d="M111.727 65.7158C111.083 65.7158 110.696 65.5874 110.438 65.3947C110.18 65.1379 110.051 64.7526 110.051 64.1105V7.60526C110.051 6.96316 110.18 6.57789 110.438 6.32105C110.696 6.12842 111.083 6 111.727 6H120.75C121.33 6 121.781 6.12842 122.039 6.32105C122.297 6.57789 122.426 6.96316 122.426 7.60526V64.1105C122.426 64.7526 122.297 65.1379 122.039 65.3947C121.781 65.5874 121.33 65.7158 120.75 65.7158H111.727ZM89.427 6C90.0071 6 90.4582 6.12842 90.716 6.32105C90.9738 6.57789 91.1027 6.96316 91.1027 7.60526V40.0316C91.1027 41.3158 91.2316 42.4716 91.5539 43.6274C91.8117 44.8474 92.3917 45.9389 93.2296 46.9021C94.003 47.9295 95.0987 48.8284 96.5166 49.5989C97.8701 50.4337 99.6103 51.0758 101.802 51.4611C101.931 51.5253 102.188 51.5895 102.446 51.5895C102.639 51.6537 102.833 51.7179 103.091 51.8463C103.284 52.0389 103.477 52.2316 103.671 52.4884C103.8 52.8095 103.864 53.1947 103.864 53.7084V60.8358C103.864 61.6063 103.671 62.0558 103.284 62.2484C102.833 62.3768 102.446 62.3768 102.188 62.3768C100.641 62.2484 99.1591 61.9916 97.6123 61.7347C96.001 61.3495 94.4542 60.9 92.9718 60.3863C91.425 59.7442 90.007 59.0379 88.6536 58.1389C87.2356 57.24 86.0111 56.1484 84.9799 54.9284C83.8197 56.1484 82.5952 57.24 81.3061 58.1389C79.8882 59.0379 78.4703 59.7442 76.9879 60.3863C75.4411 60.9 73.9587 61.3495 72.4119 61.7347C70.8006 61.9916 69.2538 62.2484 67.7714 62.3768C67.4491 62.3768 67.1269 62.3768 66.7402 62.2484C66.289 62.0558 66.0957 61.6063 66.0957 60.8358V53.7084C66.0957 53.1947 66.1601 52.8095 66.3535 52.4884C66.4824 52.2316 66.6113 52.0389 66.8691 51.8463C67.0624 51.7179 67.3202 51.6537 67.578 51.5895C67.7714 51.5895 67.9648 51.5253 68.1581 51.4611C70.285 51.0758 72.0252 50.4337 73.4431 49.5989C74.7966 48.8284 75.8922 47.9295 76.7301 46.9021C77.5035 45.9389 78.0836 44.8474 78.4058 43.6274C78.6636 42.4716 78.857 41.3158 78.857 40.0316V7.60526C78.857 6.96316 78.9859 6.57789 79.2437 6.32105C79.5015 6.12842 79.8882 6 80.5327 6H89.427Z"/>
<path d="M185.395 59.3589C185.395 62.0558 184.815 63.9821 183.655 65.2021C182.494 66.3579 180.754 67 178.434 67H141.504C139.183 67 137.443 66.3579 136.283 65.2021C135.123 63.9821 134.543 62.0558 134.543 59.3589V43.5632C134.543 42.9211 134.672 42.5358 134.93 42.2789C135.187 42.0863 135.574 41.9579 136.219 41.9579H183.719C184.299 41.9579 184.75 42.0863 185.008 42.2789C185.266 42.5358 185.395 42.9211 185.395 43.5632V59.3589ZM166.511 30.1432C166.511 32.84 165.931 34.8305 164.77 35.9863C163.61 37.2063 161.87 37.7842 159.55 37.7842H138.539C136.219 37.7842 134.478 37.2063 133.318 35.9863C132.158 34.8305 131.578 32.84 131.578 30.1432V7.60526C131.578 6.96316 131.707 6.57789 131.965 6.32105C132.223 6.12842 132.609 6 133.254 6H164.835C165.415 6 165.866 6.12842 166.124 6.32105C166.382 6.57789 166.511 6.96316 166.511 7.60526V30.1432ZM193 25.0705C193 25.7126 192.871 26.1621 192.613 26.3547C192.355 26.6116 191.904 26.6758 191.324 26.6758H185.395V37.3989C185.395 38.041 185.266 38.4905 185.008 38.6832C184.75 38.94 184.299 39.0042 183.719 39.0042H174.696C174.051 39.0042 173.665 38.94 173.407 38.6832C173.149 38.4905 173.02 38.041 173.02 37.3989V7.60526C173.02 6.96316 173.149 6.57789 173.407 6.32105C173.665 6.12842 174.051 6 174.696 6H183.719C184.299 6 184.75 6.12842 185.008 6.32105C185.266 6.57789 185.395 6.96316 185.395 7.60526V16.0168H191.324C191.904 16.0168 192.355 16.1453 192.613 16.3379C192.871 16.5947 193 16.98 193 17.6221V25.0705ZM171.667 56.9189C172.376 56.9189 172.891 56.7905 173.149 56.5337C173.407 56.2126 173.536 55.6989 173.536 54.8642V51.7179H146.273V54.8642C146.273 55.6989 146.402 56.2126 146.66 56.5337C146.917 56.7905 147.369 56.9189 148.142 56.9189H171.667ZM152.847 27.7032C153.556 27.7032 154.071 27.5747 154.329 27.2537C154.587 26.9968 154.716 26.4832 154.716 25.6484V15.76H143.373V25.6484C143.373 26.4832 143.501 26.9968 143.759 27.2537C144.017 27.5747 144.468 27.7032 145.242 27.7032H152.847Z"/>
</mask>
<path d="M56.4924 59.3589C56.4924 62.0558 55.9124 63.9821 54.7523 65.2021C53.5921 66.3579 51.852 67 49.5317 67H12.6012C10.281 67 8.54079 66.3579 7.38066 65.2021C6.22054 63.9821 5.64048 62.0558 5.64048 59.3589V43.5632C5.64048 42.9211 5.76939 42.5358 6.02719 42.2789C6.285 42.0863 6.6717 41.9579 7.31621 41.9579H54.8167C55.3968 41.9579 55.8479 42.0863 56.1057 42.2789C56.3635 42.5358 56.4924 42.9211 56.4924 43.5632V59.3589ZM1.32226 7.60526C1.32226 6.96316 1.45116 6.57789 1.70896 6.32105C1.96677 6.12842 2.35347 6 2.99799 6H36.7059C37.286 6 37.7372 6.12842 37.995 6.32105C38.2528 6.57789 38.3817 6.96316 38.3817 7.60526V15.1179C38.3817 15.76 38.2528 16.2095 37.995 16.4021C37.7372 16.6589 37.286 16.7232 36.7059 16.7232H26.007C26.007 18.0074 26.136 19.1632 26.4582 20.3189C26.716 21.5389 27.2961 22.6305 28.1339 23.5937C28.9074 24.6211 30.003 25.52 31.4209 26.2905C32.7744 27.0611 34.5146 27.7032 36.7059 28.0884C36.8348 28.1526 37.0926 28.2168 37.3505 28.2168C37.5438 28.2811 37.7372 28.3453 37.995 28.4737C38.1883 28.6663 38.3817 28.8589 38.575 29.1158C38.7039 29.4368 38.7684 29.8221 38.7684 30.3358V37.4632C38.7684 38.2337 38.575 38.6832 38.1883 38.8116C37.7372 39.0042 37.3505 39.0684 37.0926 39.0042C35.5458 38.8758 34.0634 38.6832 32.5166 38.2979C30.9053 38.041 29.3585 37.5916 27.8761 36.9495C26.3293 36.4358 24.9114 35.6653 23.5579 34.7663C22.14 33.8674 20.9154 32.84 19.8842 31.5558C18.7241 32.84 17.4995 33.8674 16.2105 34.7663C14.7925 35.6653 13.3746 36.4358 11.8922 36.9495C10.3454 37.5916 8.86304 38.041 7.31621 38.2979C5.70494 38.6832 4.15811 38.8758 2.67573 39.0042C2.35347 39.0684 2.03122 39.0042 1.64451 38.8116C1.19335 38.6832 1 38.2337 1 37.4632V30.3358C1 29.8221 1.06445 29.4368 1.2578 29.1158C1.38671 28.8589 1.51561 28.6663 1.77341 28.4737C1.96677 28.3453 2.22457 28.2811 2.48238 28.2168C2.67573 28.2168 2.86908 28.1526 3.06244 28.0884C5.12487 27.7032 6.86506 27.0611 8.28298 26.2905C9.63646 25.52 10.7321 24.6211 11.57 23.5937C12.3434 22.6305 12.9235 21.5389 13.3102 20.3189C13.568 19.1632 13.7613 18.0074 13.7613 16.7232H2.99799C2.35347 16.7232 1.96677 16.6589 1.70896 16.4021C1.45116 16.2095 1.32226 15.76 1.32226 15.1179V7.60526ZM64.0977 25.0705C64.0977 25.7126 63.9688 26.1621 63.711 26.3547C63.4532 26.6116 63.002 26.6758 62.422 26.6758H56.4924V37.3989C56.4924 38.041 56.3635 38.4905 56.1057 38.6832C55.8479 38.94 55.3968 39.0042 54.8167 39.0042H45.7936C45.149 39.0042 44.7623 38.94 44.5045 38.6832C44.2467 38.4905 44.1178 38.041 44.1178 37.3989V7.60526C44.1178 6.96316 44.2467 6.57789 44.5045 6.32105C44.7623 6.12842 45.149 6 45.7936 6H54.8167C55.3968 6 55.8479 6.12842 56.1057 6.32105C56.3635 6.57789 56.4924 6.96316 56.4924 7.60526V16.0168H62.422C63.002 16.0168 63.4532 16.1453 63.711 16.3379C63.9688 16.5947 64.0977 16.98 64.0977 17.6221V25.0705ZM42.7644 56.9189C43.4733 56.9189 43.9889 56.7905 44.2467 56.5337C44.5045 56.2126 44.6334 55.6989 44.6334 54.8642V51.7179H17.3706V54.8642C17.3706 55.6989 17.4995 56.2126 17.7573 56.5337C18.0151 56.7905 18.4663 56.9189 19.2397 56.9189H42.7644Z" fill="black"/>
<path d="M111.727 65.7158C111.083 65.7158 110.696 65.5874 110.438 65.3947C110.18 65.1379 110.051 64.7526 110.051 64.1105V7.60526C110.051 6.96316 110.18 6.57789 110.438 6.32105C110.696 6.12842 111.083 6 111.727 6H120.75C121.33 6 121.781 6.12842 122.039 6.32105C122.297 6.57789 122.426 6.96316 122.426 7.60526V64.1105C122.426 64.7526 122.297 65.1379 122.039 65.3947C121.781 65.5874 121.33 65.7158 120.75 65.7158H111.727ZM89.427 6C90.0071 6 90.4582 6.12842 90.716 6.32105C90.9738 6.57789 91.1027 6.96316 91.1027 7.60526V40.0316C91.1027 41.3158 91.2316 42.4716 91.5539 43.6274C91.8117 44.8474 92.3917 45.9389 93.2296 46.9021C94.003 47.9295 95.0987 48.8284 96.5166 49.5989C97.8701 50.4337 99.6103 51.0758 101.802 51.4611C101.931 51.5253 102.188 51.5895 102.446 51.5895C102.639 51.6537 102.833 51.7179 103.091 51.8463C103.284 52.0389 103.477 52.2316 103.671 52.4884C103.8 52.8095 103.864 53.1947 103.864 53.7084V60.8358C103.864 61.6063 103.671 62.0558 103.284 62.2484C102.833 62.3768 102.446 62.3768 102.188 62.3768C100.641 62.2484 99.1591 61.9916 97.6123 61.7347C96.001 61.3495 94.4542 60.9 92.9718 60.3863C91.425 59.7442 90.007 59.0379 88.6536 58.1389C87.2356 57.24 86.0111 56.1484 84.9799 54.9284C83.8197 56.1484 82.5952 57.24 81.3061 58.1389C79.8882 59.0379 78.4703 59.7442 76.9879 60.3863C75.4411 60.9 73.9587 61.3495 72.4119 61.7347C70.8006 61.9916 69.2538 62.2484 67.7714 62.3768C67.4491 62.3768 67.1269 62.3768 66.7402 62.2484C66.289 62.0558 66.0957 61.6063 66.0957 60.8358V53.7084C66.0957 53.1947 66.1601 52.8095 66.3535 52.4884C66.4824 52.2316 66.6113 52.0389 66.8691 51.8463C67.0624 51.7179 67.3202 51.6537 67.578 51.5895C67.7714 51.5895 67.9648 51.5253 68.1581 51.4611C70.285 51.0758 72.0252 50.4337 73.4431 49.5989C74.7966 48.8284 75.8922 47.9295 76.7301 46.9021C77.5035 45.9389 78.0836 44.8474 78.4058 43.6274C78.6636 42.4716 78.857 41.3158 78.857 40.0316V7.60526C78.857 6.96316 78.9859 6.57789 79.2437 6.32105C79.5015 6.12842 79.8882 6 80.5327 6H89.427Z" fill="black"/>
<path d="M185.395 59.3589C185.395 62.0558 184.815 63.9821 183.655 65.2021C182.494 66.3579 180.754 67 178.434 67H141.504C139.183 67 137.443 66.3579 136.283 65.2021C135.123 63.9821 134.543 62.0558 134.543 59.3589V43.5632C134.543 42.9211 134.672 42.5358 134.93 42.2789C135.187 42.0863 135.574 41.9579 136.219 41.9579H183.719C184.299 41.9579 184.75 42.0863 185.008 42.2789C185.266 42.5358 185.395 42.9211 185.395 43.5632V59.3589ZM166.511 30.1432C166.511 32.84 165.931 34.8305 164.77 35.9863C163.61 37.2063 161.87 37.7842 159.55 37.7842H138.539C136.219 37.7842 134.478 37.2063 133.318 35.9863C132.158 34.8305 131.578 32.84 131.578 30.1432V7.60526C131.578 6.96316 131.707 6.57789 131.965 6.32105C132.223 6.12842 132.609 6 133.254 6H164.835C165.415 6 165.866 6.12842 166.124 6.32105C166.382 6.57789 166.511 6.96316 166.511 7.60526V30.1432ZM193 25.0705C193 25.7126 192.871 26.1621 192.613 26.3547C192.355 26.6116 191.904 26.6758 191.324 26.6758H185.395V37.3989C185.395 38.041 185.266 38.4905 185.008 38.6832C184.75 38.94 184.299 39.0042 183.719 39.0042H174.696C174.051 39.0042 173.665 38.94 173.407 38.6832C173.149 38.4905 173.02 38.041 173.02 37.3989V7.60526C173.02 6.96316 173.149 6.57789 173.407 6.32105C173.665 6.12842 174.051 6 174.696 6H183.719C184.299 6 184.75 6.12842 185.008 6.32105C185.266 6.57789 185.395 6.96316 185.395 7.60526V16.0168H191.324C191.904 16.0168 192.355 16.1453 192.613 16.3379C192.871 16.5947 193 16.98 193 17.6221V25.0705ZM171.667 56.9189C172.376 56.9189 172.891 56.7905 173.149 56.5337C173.407 56.2126 173.536 55.6989 173.536 54.8642V51.7179H146.273V54.8642C146.273 55.6989 146.402 56.2126 146.66 56.5337C146.917 56.7905 147.369 56.9189 148.142 56.9189H171.667ZM152.847 27.7032C153.556 27.7032 154.071 27.5747 154.329 27.2537C154.587 26.9968 154.716 26.4832 154.716 25.6484V15.76H143.373V25.6484C143.373 26.4832 143.501 26.9968 143.759 27.2537C144.017 27.5747 144.468 27.7032 145.242 27.7032H152.847Z" fill="black"/>
<path d="M56.4924 59.3589C56.4924 62.0558 55.9124 63.9821 54.7523 65.2021C53.5921 66.3579 51.852 67 49.5317 67H12.6012C10.281 67 8.54079 66.3579 7.38066 65.2021C6.22054 63.9821 5.64048 62.0558 5.64048 59.3589V43.5632C5.64048 42.9211 5.76939 42.5358 6.02719 42.2789C6.285 42.0863 6.6717 41.9579 7.31621 41.9579H54.8167C55.3968 41.9579 55.8479 42.0863 56.1057 42.2789C56.3635 42.5358 56.4924 42.9211 56.4924 43.5632V59.3589ZM1.32226 7.60526C1.32226 6.96316 1.45116 6.57789 1.70896 6.32105C1.96677 6.12842 2.35347 6 2.99799 6H36.7059C37.286 6 37.7372 6.12842 37.995 6.32105C38.2528 6.57789 38.3817 6.96316 38.3817 7.60526V15.1179C38.3817 15.76 38.2528 16.2095 37.995 16.4021C37.7372 16.6589 37.286 16.7232 36.7059 16.7232H26.007C26.007 18.0074 26.136 19.1632 26.4582 20.3189C26.716 21.5389 27.2961 22.6305 28.1339 23.5937C28.9074 24.6211 30.003 25.52 31.4209 26.2905C32.7744 27.0611 34.5146 27.7032 36.7059 28.0884C36.8348 28.1526 37.0926 28.2168 37.3505 28.2168C37.5438 28.2811 37.7372 28.3453 37.995 28.4737C38.1883 28.6663 38.3817 28.8589 38.575 29.1158C38.7039 29.4368 38.7684 29.8221 38.7684 30.3358V37.4632C38.7684 38.2337 38.575 38.6832 38.1883 38.8116C37.7372 39.0042 37.3505 39.0684 37.0926 39.0042C35.5458 38.8758 34.0634 38.6832 32.5166 38.2979C30.9053 38.041 29.3585 37.5916 27.8761 36.9495C26.3293 36.4358 24.9114 35.6653 23.5579 34.7663C22.14 33.8674 20.9154 32.84 19.8842 31.5558C18.7241 32.84 17.4995 33.8674 16.2105 34.7663C14.7925 35.6653 13.3746 36.4358 11.8922 36.9495C10.3454 37.5916 8.86304 38.041 7.31621 38.2979C5.70494 38.6832 4.15811 38.8758 2.67573 39.0042C2.35347 39.0684 2.03122 39.0042 1.64451 38.8116C1.19335 38.6832 1 38.2337 1 37.4632V30.3358C1 29.8221 1.06445 29.4368 1.2578 29.1158C1.38671 28.8589 1.51561 28.6663 1.77341 28.4737C1.96677 28.3453 2.22457 28.2811 2.48238 28.2168C2.67573 28.2168 2.86908 28.1526 3.06244 28.0884C5.12487 27.7032 6.86506 27.0611 8.28298 26.2905C9.63646 25.52 10.7321 24.6211 11.57 23.5937C12.3434 22.6305 12.9235 21.5389 13.3102 20.3189C13.568 19.1632 13.7613 18.0074 13.7613 16.7232H2.99799C2.35347 16.7232 1.96677 16.6589 1.70896 16.4021C1.45116 16.2095 1.32226 15.76 1.32226 15.1179V7.60526ZM64.0977 25.0705C64.0977 25.7126 63.9688 26.1621 63.711 26.3547C63.4532 26.6116 63.002 26.6758 62.422 26.6758H56.4924V37.3989C56.4924 38.041 56.3635 38.4905 56.1057 38.6832C55.8479 38.94 55.3968 39.0042 54.8167 39.0042H45.7936C45.149 39.0042 44.7623 38.94 44.5045 38.6832C44.2467 38.4905 44.1178 38.041 44.1178 37.3989V7.60526C44.1178 6.96316 44.2467 6.57789 44.5045 6.32105C44.7623 6.12842 45.149 6 45.7936 6H54.8167C55.3968 6 55.8479 6.12842 56.1057 6.32105C56.3635 6.57789 56.4924 6.96316 56.4924 7.60526V16.0168H62.422C63.002 16.0168 63.4532 16.1453 63.711 16.3379C63.9688 16.5947 64.0977 16.98 64.0977 17.6221V25.0705ZM42.7644 56.9189C43.4733 56.9189 43.9889 56.7905 44.2467 56.5337C44.5045 56.2126 44.6334 55.6989 44.6334 54.8642V51.7179H17.3706V54.8642C17.3706 55.6989 17.4995 56.2126 17.7573 56.5337C18.0151 56.7905 18.4663 56.9189 19.2397 56.9189H42.7644Z" stroke="black" stroke-width="0.4" mask="url(#path-10-outside-3_209_1123)"/>
<path d="M111.727 65.7158C111.083 65.7158 110.696 65.5874 110.438 65.3947C110.18 65.1379 110.051 64.7526 110.051 64.1105V7.60526C110.051 6.96316 110.18 6.57789 110.438 6.32105C110.696 6.12842 111.083 6 111.727 6H120.75C121.33 6 121.781 6.12842 122.039 6.32105C122.297 6.57789 122.426 6.96316 122.426 7.60526V64.1105C122.426 64.7526 122.297 65.1379 122.039 65.3947C121.781 65.5874 121.33 65.7158 120.75 65.7158H111.727ZM89.427 6C90.0071 6 90.4582 6.12842 90.716 6.32105C90.9738 6.57789 91.1027 6.96316 91.1027 7.60526V40.0316C91.1027 41.3158 91.2316 42.4716 91.5539 43.6274C91.8117 44.8474 92.3917 45.9389 93.2296 46.9021C94.003 47.9295 95.0987 48.8284 96.5166 49.5989C97.8701 50.4337 99.6103 51.0758 101.802 51.4611C101.931 51.5253 102.188 51.5895 102.446 51.5895C102.639 51.6537 102.833 51.7179 103.091 51.8463C103.284 52.0389 103.477 52.2316 103.671 52.4884C103.8 52.8095 103.864 53.1947 103.864 53.7084V60.8358C103.864 61.6063 103.671 62.0558 103.284 62.2484C102.833 62.3768 102.446 62.3768 102.188 62.3768C100.641 62.2484 99.1591 61.9916 97.6123 61.7347C96.001 61.3495 94.4542 60.9 92.9718 60.3863C91.425 59.7442 90.007 59.0379 88.6536 58.1389C87.2356 57.24 86.0111 56.1484 84.9799 54.9284C83.8197 56.1484 82.5952 57.24 81.3061 58.1389C79.8882 59.0379 78.4703 59.7442 76.9879 60.3863C75.4411 60.9 73.9587 61.3495 72.4119 61.7347C70.8006 61.9916 69.2538 62.2484 67.7714 62.3768C67.4491 62.3768 67.1269 62.3768 66.7402 62.2484C66.289 62.0558 66.0957 61.6063 66.0957 60.8358V53.7084C66.0957 53.1947 66.1601 52.8095 66.3535 52.4884C66.4824 52.2316 66.6113 52.0389 66.8691 51.8463C67.0624 51.7179 67.3202 51.6537 67.578 51.5895C67.7714 51.5895 67.9648 51.5253 68.1581 51.4611C70.285 51.0758 72.0252 50.4337 73.4431 49.5989C74.7966 48.8284 75.8922 47.9295 76.7301 46.9021C77.5035 45.9389 78.0836 44.8474 78.4058 43.6274C78.6636 42.4716 78.857 41.3158 78.857 40.0316V7.60526C78.857 6.96316 78.9859 6.57789 79.2437 6.32105C79.5015 6.12842 79.8882 6 80.5327 6H89.427Z" stroke="black" stroke-width="0.4" mask="url(#path-10-outside-3_209_1123)"/>
<path d="M185.395 59.3589C185.395 62.0558 184.815 63.9821 183.655 65.2021C182.494 66.3579 180.754 67 178.434 67H141.504C139.183 67 137.443 66.3579 136.283 65.2021C135.123 63.9821 134.543 62.0558 134.543 59.3589V43.5632C134.543 42.9211 134.672 42.5358 134.93 42.2789C135.187 42.0863 135.574 41.9579 136.219 41.9579H183.719C184.299 41.9579 184.75 42.0863 185.008 42.2789C185.266 42.5358 185.395 42.9211 185.395 43.5632V59.3589ZM166.511 30.1432C166.511 32.84 165.931 34.8305 164.77 35.9863C163.61 37.2063 161.87 37.7842 159.55 37.7842H138.539C136.219 37.7842 134.478 37.2063 133.318 35.9863C132.158 34.8305 131.578 32.84 131.578 30.1432V7.60526C131.578 6.96316 131.707 6.57789 131.965 6.32105C132.223 6.12842 132.609 6 133.254 6H164.835C165.415 6 165.866 6.12842 166.124 6.32105C166.382 6.57789 166.511 6.96316 166.511 7.60526V30.1432ZM193 25.0705C193 25.7126 192.871 26.1621 192.613 26.3547C192.355 26.6116 191.904 26.6758 191.324 26.6758H185.395V37.3989C185.395 38.041 185.266 38.4905 185.008 38.6832C184.75 38.94 184.299 39.0042 183.719 39.0042H174.696C174.051 39.0042 173.665 38.94 173.407 38.6832C173.149 38.4905 173.02 38.041 173.02 37.3989V7.60526C173.02 6.96316 173.149 6.57789 173.407 6.32105C173.665 6.12842 174.051 6 174.696 6H183.719C184.299 6 184.75 6.12842 185.008 6.32105C185.266 6.57789 185.395 6.96316 185.395 7.60526V16.0168H191.324C191.904 16.0168 192.355 16.1453 192.613 16.3379C192.871 16.5947 193 16.98 193 17.6221V25.0705ZM171.667 56.9189C172.376 56.9189 172.891 56.7905 173.149 56.5337C173.407 56.2126 173.536 55.6989 173.536 54.8642V51.7179H146.273V54.8642C146.273 55.6989 146.402 56.2126 146.66 56.5337C146.917 56.7905 147.369 56.9189 148.142 56.9189H171.667ZM152.847 27.7032C153.556 27.7032 154.071 27.5747 154.329 27.2537C154.587 26.9968 154.716 26.4832 154.716 25.6484V15.76H143.373V25.6484C143.373 26.4832 143.501 26.9968 143.759 27.2537C144.017 27.5747 144.468 27.7032 145.242 27.7032H152.847Z" stroke="black" stroke-width="0.4" mask="url(#path-10-outside-3_209_1123)"/>
<mask id="path-11-inside-4_209_1123" fill="white">
<path fill-rule="evenodd" clip-rule="evenodd" d="M237.602 6.60144C236.835 6.91587 235.959 6.54945 235.645 5.78302C235.33 5.01658 235.697 4.14036 236.463 3.82593C238.104 3.15262 239.929 2.88604 241.716 3.05171C243.501 3.21732 245.206 3.8113 246.605 4.79398C248.006 5.77839 249.056 7.12352 249.555 8.68935C250.055 10.2621 249.958 11.9284 249.299 13.4565C249.225 13.6266 249.145 13.7939 249.059 13.9581C259.236 17.4359 266.772 26.6105 267.864 37.6781C271.383 38.5178 274 41.6832 274 45.4599C274 49.8782 270.418 53.4599 266 53.4599C265.609 53.4599 265.225 53.4318 264.849 53.3776C260.18 62.3401 250.805 68.46 240 68.46C229.009 68.46 219.498 62.1277 214.914 52.9124C214.011 53.2659 213.028 53.4599 212 53.4599C207.582 53.4599 204 49.8782 204 45.4599C204 41.0416 207.582 37.4599 212 37.4599C212.053 37.4599 212.106 37.4604 212.159 37.4614C213.655 23.4075 225.549 12.46 240 12.46C242.081 12.46 244.11 12.6871 246.061 13.1179C246.258 12.8431 246.419 12.558 246.544 12.2676C246.926 11.3834 246.971 10.4623 246.696 9.59982C246.419 8.73043 245.81 7.90185 244.881 7.24893C243.949 6.59427 242.754 6.16085 241.439 6.03889C240.124 5.91701 238.786 6.11562 237.602 6.60144Z"/>
</mask>
<path d="M235.645 5.78302L232.869 6.92168L232.869 6.92168L235.645 5.78302ZM237.602 6.60144L236.463 3.82593L236.463 3.82593L237.602 6.60144ZM236.463 3.82593L235.324 1.05042V1.05042L236.463 3.82593ZM241.716 3.05171L241.439 6.03889L241.716 3.05171ZM246.605 4.79398L248.329 2.33903L248.329 2.33903L246.605 4.79398ZM249.555 8.68935L252.413 7.77888V7.77887L249.555 8.68935ZM249.299 13.4565L252.053 14.6454L252.053 14.6454L249.299 13.4565ZM249.059 13.9581L246.402 12.5657L244.778 15.6653L248.089 16.7969L249.059 13.9581ZM267.864 37.6781L264.878 37.9725L265.088 40.1L267.167 40.5962L267.864 37.6781ZM264.849 53.3776L265.277 50.4083L263.171 50.1048L262.188 51.9917L264.849 53.3776ZM214.914 52.9124L217.601 51.5765L216.378 49.1181L213.821 50.1187L214.914 52.9124ZM212.159 37.4614L212.1 40.4608L214.851 40.5143L215.142 37.779L212.159 37.4614ZM246.061 13.1179L245.415 16.0474L247.351 16.4746L248.503 14.8613L246.061 13.1179ZM246.544 12.2676L243.79 11.0786L243.79 11.0787L246.544 12.2676ZM246.696 9.59982L249.555 8.68935L249.555 8.68934L246.696 9.59982ZM244.881 7.24893L246.605 4.79398L246.605 4.79398L244.881 7.24893ZM241.439 6.03889L241.162 9.02608L241.439 6.03889ZM232.869 6.92168C233.812 9.22098 236.441 10.3203 238.74 9.37695L236.463 3.82593C237.23 3.5115 238.106 3.87792 238.42 4.64436L232.869 6.92168ZM235.324 1.05042C233.025 1.99372 231.926 4.62237 232.869 6.92168L238.42 4.64436C238.735 5.4108 238.368 6.28701 237.602 6.60144L235.324 1.05042ZM241.993 0.0645292C239.734 -0.144931 237.423 0.18962 235.324 1.05042L237.602 6.60144C238.786 6.11563 240.124 5.917 241.439 6.03889L241.993 0.0645292ZM248.329 2.33903C246.463 1.02823 244.249 0.273767 241.993 0.0645289L241.439 6.03889C242.754 6.16087 243.949 6.59437 244.881 7.24893L248.329 2.33903ZM252.413 7.77887C251.692 5.51608 250.202 3.65456 248.329 2.33903L244.881 7.24893C245.811 7.90221 246.419 8.73097 246.696 9.59982L252.413 7.77887ZM252.053 14.6454C252.991 12.4736 253.14 10.0622 252.413 7.77888L246.696 9.59982C246.971 10.462 246.926 11.3831 246.544 12.2676L252.053 14.6454ZM251.717 15.3505C251.837 15.1206 251.95 14.8854 252.053 14.6454L246.544 12.2675C246.501 12.3679 246.454 12.4673 246.402 12.5657L251.717 15.3505ZM248.089 16.7969C257.178 19.9028 263.904 28.0995 264.878 37.9725L270.849 37.3836C269.64 25.1214 261.294 14.969 250.03 11.1193L248.089 16.7969ZM267.167 40.5962C269.367 41.121 271 43.1034 271 45.4599H277C277 40.263 273.399 35.9146 268.56 34.76L267.167 40.5962ZM271 45.4599C271 48.2213 268.761 50.4599 266 50.4599V56.4599C272.075 56.4599 277 51.535 277 45.4599H271ZM266 50.4599C265.753 50.4599 265.511 50.4421 265.277 50.4083L264.421 56.347C264.938 56.4215 265.465 56.4599 266 56.4599V50.4599ZM262.188 51.9917C258.016 60.0014 249.643 65.46 240 65.46V71.46C251.967 71.46 262.344 64.6789 267.509 54.7636L262.188 51.9917ZM240 65.46C230.191 65.46 221.696 59.8117 217.601 51.5765L212.228 54.2484C217.299 64.4437 227.827 71.46 240 71.46V65.46ZM213.821 50.1187C213.261 50.338 212.648 50.4599 212 50.4599V56.4599C213.408 56.4599 214.762 56.1937 216.008 55.7061L213.821 50.1187ZM212 50.4599C209.239 50.4599 207 48.2213 207 45.4599H201C201 51.535 205.925 56.4599 212 56.4599V50.4599ZM207 45.4599C207 42.6984 209.239 40.4599 212 40.4599V34.4599C205.925 34.4599 201 39.3847 201 45.4599H207ZM212 40.4599C212.033 40.4599 212.067 40.4602 212.1 40.4608L212.217 34.462C212.145 34.4606 212.073 34.4599 212 34.4599V40.4599ZM215.142 37.779C216.477 25.234 227.099 15.46 240 15.46V9.46004C223.999 9.46004 210.832 21.5809 209.176 37.1438L215.142 37.779ZM240 15.46C241.862 15.46 243.674 15.6632 245.415 16.0474L246.708 10.1884C244.545 9.71107 242.3 9.46004 240 9.46004V15.46ZM243.79 11.0787C243.753 11.1648 243.698 11.2648 243.62 11.3745L248.503 14.8613C248.817 14.4214 249.085 13.9512 249.299 13.4565L243.79 11.0787ZM243.838 10.5103C243.886 10.6628 243.894 10.8388 243.79 11.0786L249.299 13.4565C249.959 11.928 250.055 10.2617 249.555 8.68935L243.838 10.5103ZM243.156 9.70387C243.613 10.0247 243.782 10.3364 243.838 10.5103L249.555 8.68934C249.056 7.12441 248.007 5.77899 246.605 4.79398L243.156 9.70387ZM241.162 9.02608C242.006 9.10436 242.691 9.37711 243.156 9.70387L246.605 4.79398C245.206 3.81144 243.502 3.21734 241.716 3.05171L241.162 9.02608ZM238.74 9.37695C239.468 9.0786 240.319 8.94798 241.162 9.02608L241.716 3.05171C239.929 2.88603 238.104 3.15264 236.463 3.82593L238.74 9.37695Z" fill="#454545" mask="url(#path-11-inside-4_209_1123)"/>
<circle cx="231" cy="40.46" r="4" fill="#454545"/>
<circle cx="255" cy="40.46" r="4" fill="#454545"/>
<path d="M243 58.46C247.08 58.46 250.447 55.4052 250.938 51.458C251.007 50.9099 250.552 50.46 250 50.46H236C235.448 50.46 234.993 50.9099 235.062 51.458C235.553 55.4052 238.92 58.46 243 58.46Z" fill="#454545"/>
<path d="M233 26C233 26 233.292 30 237.7 30C242.108 30 243.913 27.3333 244.021 26C244.021 25.3333 243.697 24 242.4 24C241.773 24 240.922 24.8984 240.992 26C241.102 27.7451 242.927 30 247.1 30C252.546 30 251.8 26 251.8 26" stroke="#454545" stroke-width="2" stroke-linecap="round"/>
<g clip-path="url(#clip1_209_1123)">
<path d="M280 33.6663C286.443 33.6663 291.666 28.443 291.666 21.9997C291.666 15.5564 286.443 10.333 280 10.333C273.556 10.333 268.333 15.5564 268.333 21.9997C268.333 28.443 273.556 33.6663 280 33.6663Z" stroke="#454545" stroke-width="3" stroke-linecap="round" stroke-linejoin="round"/>
<path d="M283.5 26.6667L280.684 23.8503C280.246 23.4129 280 22.8195 280 22.2007V15" stroke="#454545" stroke-width="2.33333" stroke-linecap="round" stroke-linejoin="round"/>
</g>
<defs>
<clipPath id="clip0_209_1123">
<rect width="28" height="28" fill="white" transform="translate(266 8)"/>
</clipPath>
<clipPath id="clip1_209_1123">
<rect width="28" height="28" fill="white" transform="translate(266 8)"/>
</clipPath>
</defs>
</svg>
