<svg width="327" height="55" viewBox="0 0 327 55" fill="none" xmlns="http://www.w3.org/2000/svg">
<rect y="0.839844" width="327" height="54" rx="4" fill="#FAF4ED"/>
<mask id="mask0_440_1522" style="mask-type:alpha" maskUnits="userSpaceOnUse" x="17" y="17" width="22" height="21">
<path d="M22.9998 28.3398C22.9998 25.5783 25.2383 23.3398 27.9998 23.3398C30.7613 23.3398 32.9998 25.5783 32.9998 28.3398V36.3398H22.9998V28.3398Z" fill="white" stroke="white" stroke-width="2" stroke-linejoin="round"/>
<path d="M28.0001 18.3398V19.8398M33.9461 20.5038L32.9816 21.6528M37.1096 25.9833L35.6321 26.2438M18.8906 25.9833L20.3681 26.2438M22.0546 20.5038L23.0186 21.6528M19.0001 36.3398H37.5001" stroke="white" stroke-width="2" stroke-linecap="round" stroke-linejoin="round"/>
</mask>
<g mask="url(#mask0_440_1522)">
<path d="M16 15.8398H40V39.8398H16V15.8398Z" fill="#D13737"/>
</g>
<path d="M53.9531 24.2773V22.1523H51.9375V24.2773C51.9297 27.0352 50.7188 29.7617 48.2344 30.8086L49.4375 32.4648C51.1719 31.6758 52.3359 30.1289 52.9766 28.207C53.625 29.9648 54.75 31.3867 56.375 32.1211L57.5469 30.5273C55.1328 29.5039 53.9453 26.8867 53.9531 24.2773ZM58.3125 35.3086H60.3281V21.0586H58.3125V35.3086ZM73.962 21.0586H71.9932V26.0742H69.4932V27.6836H71.9932V35.3086H73.962V21.0586ZM62.6182 32.0898H63.7432C66.1807 32.082 68.0401 32.0117 70.1182 31.6992L69.9151 30.1055C68.1573 30.3789 66.5792 30.4492 64.6026 30.4648V27.7773H68.7432V26.2148H64.6026V23.8555H69.2589V22.2461H62.6182V32.0898ZM91.9016 29.2617H78.886V30.8242H84.3704V35.2773H86.3391V30.8242H91.9016V29.2617ZM80.4172 27.8867H90.3547V21.6055H88.3547V23.2461H82.386V21.6055H80.4172V27.8867ZM82.386 26.293V24.8086H88.3547V26.293H82.386ZM104.239 21.5742H93.6292V23.1523H97.4886C97.1761 24.1836 95.7152 25.1914 93.0199 25.4492L93.723 27.0117C96.3871 26.7383 98.1605 25.7227 98.9105 24.332C99.6683 25.7227 101.473 26.7383 104.145 27.0117L104.864 25.4492C102.129 25.1914 100.653 24.1914 100.348 23.1523H104.239V21.5742ZM92.4417 29.5742H105.41V27.9805H99.8949V26.1211H97.9261V27.9805H92.4417V29.5742ZM93.8792 32.1836H101.848V35.2773H103.832V30.5898H93.8792V32.1836Z" fill="#121212"/>
<path d="M134.465 15.668V14.0742H132.953V15.668C132.947 17.7363 132.039 19.7812 130.176 20.5664L131.078 21.8086C132.379 21.2168 133.252 20.0566 133.732 18.6152C134.219 19.9336 135.062 21 136.281 21.5508L137.16 20.3555C135.35 19.5879 134.459 17.625 134.465 15.668ZM137.734 23.9414H139.246V13.2539H137.734V23.9414ZM149.399 13.2539H147.923V17.0156H146.048V18.2227H147.923V23.9414H149.399V13.2539ZM140.892 21.5273H141.735C143.564 21.5215 144.958 21.4688 146.517 21.2344L146.364 20.0391C145.046 20.2441 143.862 20.2969 142.38 20.3086V18.293H145.485V17.1211H142.38V15.3516H145.872V14.1445H140.892V21.5273ZM162.722 21.4453H158.562V19.2656H161.632V14.0391H153.991V19.2656H157.073V21.4453H152.96V22.6758H162.722V21.4453ZM155.468 18.0938V15.2344H160.156V18.0938H155.468ZM169.348 13.8398H163.489V15.0352H165.674C165.604 16.2422 164.778 17.4316 163.078 17.918L163.828 19.0898C165.094 18.7031 165.973 17.9004 166.453 16.8926C166.94 17.8184 167.789 18.5508 169.008 18.9023L169.758 17.7422C168.094 17.2852 167.28 16.166 167.209 15.0352H169.348V13.8398ZM164.836 23.8008H171.973V19.4883H170.485V20.4844H166.313V19.4883H164.836V23.8008ZM166.313 22.6055V21.6445H170.485V22.6055H166.313ZM170.473 19.043H171.973V13.2539H170.473V19.043ZM182.888 21.457H178.728V19.4883H181.798V13.9336H180.31V15.5859H175.658V13.9336H174.158V19.4883H177.24V21.457H173.126V22.6758H182.888V21.457ZM175.658 18.293V16.7812H180.31V18.293H175.658ZM191.624 13.2539H190.124V23.9414H191.624V18.4336H193.194V17.2148H191.624V13.2539ZM183.631 21.3516H184.534C186.415 21.3574 187.868 21.3164 189.526 21.0352L189.362 19.7812C187.944 20.0273 186.667 20.1094 185.12 20.1211V15.4453H188.635V14.2383H183.631V21.3516ZM199.919 15.668V14.0742H198.407V15.668C198.401 17.7363 197.493 19.7812 195.63 20.5664L196.532 21.8086C197.833 21.2168 198.706 20.0566 199.186 18.6152C199.673 19.9336 200.516 21 201.735 21.5508L202.614 20.3555C200.803 19.5879 199.913 17.625 199.919 15.668ZM203.188 23.9414H204.7V13.2539H203.188V23.9414ZM214.853 13.2539H213.377V17.0156H211.502V18.2227H213.377V23.9414H214.853V13.2539ZM206.345 21.5273H207.189C209.017 21.5215 210.412 21.4688 211.97 21.2344L211.818 20.0391C210.5 20.2441 209.316 20.2969 207.834 20.3086V18.293H210.939V17.1211H207.834V15.3516H211.326V14.1445H206.345V21.5273ZM224.35 13.2539H222.85V23.8945H224.35V18.5742H225.862V17.3438H224.35V13.2539ZM215.819 20.9062L216.663 22.0547C220.249 20.291 221.491 17.5312 221.503 14.3438H216.429V15.5625H219.985C219.704 17.9414 218.345 19.6406 215.819 20.9062ZM238.247 19.4062H228.485V20.5781H232.599V23.918H234.075V20.5781H238.247V19.4062ZM229.634 18.375H237.087V13.6641H235.587V14.8945H231.11V13.6641H229.634V18.375ZM231.11 17.1797V16.0664H235.587V17.1797H231.11ZM247.428 13.6406H239.471V14.8242H242.365C242.131 15.5977 241.035 16.3535 239.014 16.5469L239.541 17.7188C241.539 17.5137 242.869 16.752 243.432 15.709C244 16.752 245.354 17.5137 247.358 17.7188L247.897 16.5469C245.846 16.3535 244.738 15.6035 244.51 14.8242H247.428V13.6406ZM238.58 19.6406H248.307V18.4453H244.17V17.0508H242.693V18.4453H238.58V19.6406ZM239.658 21.5977H245.635V23.918H247.123V20.4023H239.658V21.5977ZM253.808 14.8828H251.98V13.5469H250.503V14.8828H248.652V16.0664H253.808V14.8828ZM248.898 19.0781C248.898 20.5664 249.894 21.6211 251.253 21.6211C252.618 21.6211 253.591 20.5664 253.597 19.0781C253.591 17.5957 252.618 16.5527 251.253 16.5469C249.894 16.5527 248.898 17.5957 248.898 19.0781ZM250.21 19.0781C250.21 18.2754 250.632 17.7891 251.253 17.7891C251.851 17.7891 252.279 18.2754 252.284 19.0781C252.279 19.8926 251.851 20.3555 251.253 20.3555C250.632 20.3555 250.21 19.8926 250.21 19.0781ZM254.206 23.4609H255.601V18.7852H256.468V23.918H257.886V13.2539H256.468V17.5898H255.601V13.4648H254.206V23.4609ZM268.508 21.4453H266.34V18.8027C267.143 18.3047 267.623 17.5605 267.629 16.6406C267.623 14.9121 265.918 13.7754 263.61 13.7695C261.289 13.7754 259.602 14.9121 259.602 16.6406C259.602 17.5781 260.1 18.334 260.926 18.832V21.4453H258.746V22.6758H268.508V21.4453ZM261.078 16.6406C261.078 15.5684 262.08 14.9473 263.61 14.9531C265.116 14.9473 266.147 15.5684 266.153 16.6406C266.147 17.6836 265.116 18.3281 263.61 18.3281C262.08 18.3281 261.078 17.6836 261.078 16.6406ZM262.403 21.4453V19.377C262.778 19.4473 263.182 19.4883 263.61 19.4883C264.037 19.4883 264.448 19.4473 264.828 19.3711V21.4453H262.403ZM271.255 14.3555H269.451L269.603 20.2969H271.103L271.255 14.3555ZM269.38 21.9609C269.369 22.5059 269.814 22.9453 270.365 22.9453C270.886 22.9453 271.337 22.5059 271.337 21.9609C271.337 21.4219 270.886 20.9824 270.365 20.9883C269.814 20.9824 269.369 21.4219 269.38 21.9609ZM132.414 37.125H133.234L133.164 35.3086L134.699 36.293L135.098 35.5781L133.48 34.7461L135.098 33.9023L134.699 33.1875L133.164 34.1719L133.234 32.3555H132.414L132.484 34.1719L130.949 33.1875L130.551 33.9023L132.168 34.7461L130.551 35.5781L130.949 36.293L132.484 35.3086L132.414 37.125ZM144.372 31.3711H143.446V41.8125H144.372V31.3711ZM136.169 35.8125C136.175 38.0332 137.276 39.4395 138.829 39.4336C140.376 39.4395 141.495 38.0332 141.489 35.8125C141.495 33.5977 140.376 32.1855 138.829 32.1797C137.276 32.1855 136.175 33.5977 136.169 35.8125ZM137.06 35.8125C137.06 34.1191 137.786 33.0059 138.829 33C139.878 33.0059 140.599 34.1191 140.599 35.8125C140.599 37.5059 139.878 38.6191 138.829 38.6133C137.786 38.6191 137.06 37.5059 137.06 35.8125ZM155.358 36.5273H153.002V35.0566C153.822 34.7285 154.285 34.2012 154.291 33.5039C154.285 32.2793 152.879 31.5762 150.611 31.5703C148.326 31.5762 146.92 32.2793 146.92 33.5039C146.92 34.207 147.389 34.7344 148.221 35.0566V36.5273H145.865V37.2891H155.358V36.5273ZM147.014 39.9258C147.008 41.1152 148.35 41.7656 150.611 41.7656C152.844 41.7656 154.186 41.1152 154.197 39.9258C154.186 38.7363 152.844 38.0801 150.611 38.0859C148.35 38.0801 147.008 38.7363 147.014 39.9258ZM147.869 33.5039C147.863 32.7539 148.906 32.2969 150.611 32.2969C152.299 32.2969 153.348 32.7539 153.354 33.5039C153.348 34.2656 152.299 34.7051 150.611 34.7109C148.906 34.7051 147.863 34.2656 147.869 33.5039ZM147.951 39.9258C147.94 39.2168 148.942 38.8008 150.611 38.7891C152.264 38.8008 153.266 39.2168 153.272 39.9258C153.266 40.6348 152.264 41.0566 150.611 41.0508C148.942 41.0566 147.94 40.6348 147.951 39.9258ZM149.135 36.5273V35.3086C149.574 35.3848 150.067 35.4258 150.611 35.4258C151.156 35.4258 151.649 35.3848 152.088 35.3027V36.5273H149.135ZM165.488 39.7266H162.898V37.7461H164.527V36.9844H158.058V35.2969H164.281V32.1445H157.12V32.9062H163.378V34.5352H157.144V37.7461H158.632V39.7266H155.948V40.5H165.488V39.7266ZM159.534 39.7266V37.7461H161.995V39.7266H159.534ZM174.094 31.3711H173.18V41.7891H174.094V36.3867H175.782V35.6133H174.094V31.3711ZM166.102 39.082L166.618 39.8086C170.01 38.1328 171.393 35.4434 171.399 32.4961H166.582V33.2695H170.467C170.256 35.7363 168.791 37.7461 166.102 39.082ZM184.686 32.168H179.155V32.9297H180.209V36.3926C179.729 36.3984 179.278 36.3984 178.862 36.3984L178.979 37.1719C180.672 37.1777 183.04 37.1426 185.073 36.832L185.026 36.1289C184.575 36.1875 184.1 36.2285 183.62 36.2637V32.9297H184.686V32.168ZM180.526 39.8906C180.52 41.0801 181.838 41.7656 184.018 41.7656C186.198 41.7656 187.51 41.0801 187.51 39.8906C187.51 38.7012 186.198 38.0215 184.018 38.0273C181.838 38.0215 180.52 38.7012 180.526 39.8906ZM181.1 36.375V32.9297H182.729V36.3164C182.184 36.3457 181.633 36.3633 181.1 36.375ZM181.44 39.8906C181.434 39.1758 182.413 38.7422 184.018 38.7422C185.618 38.7422 186.596 39.1758 186.596 39.8906C186.596 40.6172 185.618 41.0391 184.018 41.0391C182.413 41.0391 181.434 40.6172 181.44 39.8906ZM184.792 35.8711H186.549V37.8047H187.475V31.3711H186.549V33.2461H184.792V34.0078H186.549V35.1094H184.792V35.8711ZM198.461 39.668H194.089V37.1133H193.187V39.668H188.922V40.4297H198.461V39.668ZM189.297 36.4688L189.707 37.2305C191.3 36.9023 192.959 35.8242 193.644 34.3301C194.318 35.8301 195.994 36.9023 197.582 37.2305L197.992 36.4688C196.175 36.1582 194.119 34.623 194.113 32.8828V32.0859H193.152V32.8828C193.146 34.6348 191.119 36.1582 189.297 36.4688ZM208.544 39.6914H204.196V37.4414H207.372V32.1094H206.469V33.9961H201.055V32.1094H200.13V37.4414H203.294V39.6914H199.005V40.4531H208.544V39.6914ZM201.055 36.6914V34.7461H206.469V36.6914H201.055ZM217.15 31.3711H216.236V41.8125H217.15V36.2695H218.896V35.4961H217.15V31.3711ZM209.545 39.1992H210.365C212.345 39.1992 213.711 39.1406 215.345 38.8477L215.228 38.0508C213.676 38.3379 212.345 38.4199 210.459 38.4258V33.1523H214.408V32.3906H209.545V39.1992ZM231.387 36.3281H221.895V37.0898H231.387V36.3281ZM222.434 34.9688L222.762 35.707C224.478 35.4902 226.066 34.7227 226.641 33.5684C227.215 34.7227 228.814 35.4902 230.52 35.707L230.859 34.9688C229.014 34.7578 227.279 33.8496 227.238 32.6719H230.543V31.9102H222.762V32.6719H226.043C226.002 33.8613 224.25 34.7578 222.434 34.9688ZM223.043 39.8906C223.037 41.0977 224.391 41.7656 226.641 41.7656C228.873 41.7656 230.215 41.0977 230.227 39.8906C230.215 38.6953 228.873 38.0039 226.641 38.0039C224.391 38.0039 223.037 38.6953 223.043 39.8906ZM223.98 39.8906C223.969 39.1582 224.971 38.7422 226.641 38.7305C228.293 38.7422 229.295 39.1582 229.301 39.8906C229.295 40.6172 228.293 41.0332 226.641 41.0273C224.971 41.0332 223.969 40.6172 223.98 39.8906ZM240.04 31.3711H239.126V41.7891H240.04V36.3867H241.728V35.6133H240.04V31.3711ZM232.048 39.082L232.564 39.8086C235.956 38.1328 237.339 35.4434 237.345 32.4961H232.528V33.2695H236.413C236.202 35.7363 234.737 37.7461 232.048 39.082ZM250.205 31.3359H249.291V37.1016H250.205V34.6289H251.787V33.8672H250.205V31.3359ZM242.084 33.0586H248.295V32.3203H245.647V31.2656H244.733V32.3203H242.084V33.0586ZM242.682 35.2383C242.676 36.2988 243.672 36.9434 245.19 36.9492C246.701 36.9434 247.686 36.2988 247.697 35.2383C247.686 34.1836 246.701 33.5332 245.19 33.5273C243.672 33.5332 242.676 34.1836 242.682 35.2383ZM243.561 38.332H249.291V39.2695H243.584V41.6719H250.592V40.9688H244.486V39.9492H250.205V37.6406H243.561V38.332ZM243.561 35.2383C243.555 34.6172 244.199 34.2129 245.19 34.207C246.174 34.2129 246.818 34.6172 246.83 35.2383C246.818 35.8652 246.174 36.2578 245.19 36.2578C244.199 36.2578 243.555 35.8652 243.561 35.2383ZM260.094 32.3438V31.7461H259.145V32.3438C259.145 33.8379 257.241 35.0801 255.36 35.3438L255.735 36.0938C257.358 35.8242 258.957 34.9395 259.625 33.6504C260.293 34.9277 261.899 35.8242 263.516 36.0938L263.891 35.3438C262.01 35.0801 260.1 33.8145 260.094 32.3438ZM254.868 38.0156H259.145V41.7891H260.047V38.0156H264.36V37.2422H254.868V38.0156ZM271.202 38.3672V37.793H270.311V38.3672C270.299 39.3633 269.508 40.4766 268.19 40.9688L268.659 41.6484C269.655 41.2734 270.37 40.5469 270.745 39.709C271.055 40.582 271.7 41.3438 272.713 41.7305C273.674 41.3262 274.313 40.5234 274.635 39.6797C274.999 40.5527 275.725 41.2793 276.768 41.6484L277.225 40.9688C275.889 40.5059 275.098 39.4395 275.104 38.3672V37.793H274.202V38.3672C274.208 39.1699 273.68 40.2129 272.684 40.8281C271.694 40.2656 271.196 39.2871 271.202 38.3672ZM267.92 34.4297C267.915 35.8594 269.069 36.8438 270.651 36.8438C272.233 36.8438 273.375 35.8594 273.381 34.4297C273.375 32.9766 272.233 31.9863 270.651 31.9922C269.069 31.9863 267.915 32.9766 267.92 34.4297ZM268.823 34.4297C268.811 33.457 269.579 32.7656 270.651 32.7773C271.711 32.7656 272.479 33.457 272.479 34.4297C272.479 35.3965 271.711 36.0762 270.651 36.082C269.579 36.0762 268.811 35.3965 268.823 34.4297ZM275.362 37.3359H276.276V31.3828H275.362V37.3359ZM279.878 37.6289H278.964V41.6484H286.007V37.6289H285.082V38.8477H279.878V37.6289ZM277.757 36.8906H287.25V36.1289H277.757V36.8906ZM278.296 34.6523L278.648 35.3906C280.253 35.1504 281.847 34.3359 282.509 33.1641C283.171 34.3301 284.759 35.1504 286.371 35.3906L286.711 34.6523C284.877 34.418 282.978 33.2637 282.984 31.9805V31.4883H282.035V31.9805C282.035 33.3047 280.154 34.4004 278.296 34.6523ZM279.878 40.9102V39.5742H285.082V40.9102H279.878ZM296.43 31.3711H295.516V41.7891H296.43V31.3711ZM288.52 39.1055H289.364C291.034 39.1055 292.68 38.9766 294.532 38.5898L294.403 37.8047C292.657 38.1738 291.016 38.2969 289.423 38.3086V32.4023H288.52V39.1055ZM305.986 31.3711H305.072V41.8125H305.986V36.2695H307.732V35.4961H305.986V31.3711ZM298.381 39.1992H299.201C301.181 39.1992 302.547 39.1406 304.181 38.8477L304.064 38.0508C302.511 38.3379 301.181 38.4199 299.295 38.4258V33.1523H303.244V32.3906H298.381V39.1992Z" fill="#121212"/>
</svg>
